<svg xmlns="http://www.w3.org/2000/svg" height="240" viewBox="0 -960 960 960" width="550">
  <style>
    * {
      fill: #fff;
    }

    text {
      font-family: 'Arial Rounded MT', sans-serif;
      font-size: 700px;
      font-weight: 700;
      text-anchor: middle;
    }
  </style>

  <text transform="translate(-240, -240)">A</text>
  <path transform="translate(-20)"
    d="M458-290l186-268H513l89-250H348v366h110v152zm297-263L442-101q-8.28 10.8-18.64 13.4Q413-85 403.1-88.16q-10.9-4.15-18-12.08T378-121v-227h-43q-33.41 0-57.21-23.79Q254-395.59 254-429v-379q0-40.21 27.63-67.61Q309.25-903 348-903h274q36.59 0 62.3 30 25.7 30 11.7 65l-53 155h66q39.87 0 55.44 32Q780-589 755-553zM458-442H348h110z" />
  <text transform="translate(1180, -240)">C</text>
</svg>