<svg xmlns="http://www.w3.org/2000/svg" viewBox="0 0 143 25" width="143" fill="currentColor">
  <path
    d="M7 14.6a12 12 0 0 1 2.8-.6 10 10 0 0 1 .5-8.8l.4-.7a32.9 32.9 0 0 0 .9-2.3v-1c-.1-.4-.3-.7-.7-1.1-.6-.2-1.1 0-1.6.3L4.2 5.1c-.3.2-.5.6-.6 1l-.4 3a14.6 14.6 0 0 1 3.7 5.5Zm-4-4.2-.1.3-2.8 6c-.2.7-.1 1.4.4 1.9L4.8 23a8.7 8.7 0 0 0 .8-8.7c-.7-1.8-1.9-3.2-2.6-4Z" />
  <path
    d="M5.8 23.5H6a23.8 23.8 0 0 1 7.4 1.4c1.2.4 2.3-.5 2.5-1.7a7 7 0 0 1 .8-2.7c-.8-2-1.6-3.2-2.6-4a5 5 0 0 0-2.9-1.3c-1.6-.2-3 .2-4 .5.6 2.3.4 5-1.4 7.8Z" />
  <path
    d="m17.4 19.3 2-3c0-.4 0-.7-.2-1a18 18 0 0 1-2-3.5c-.7-1.4-.7-3.5-.8-4.6 0-.4 0-.7-.3-1l-3.4-4.3v.6L12 4l-.5 1-.3.6A11 11 0 0 0 10 9.4c0 1.3 0 2.8.9 4.7h.4c1.1.2 2.3.6 3.5 1.6 1 .8 1.8 2 2.5 3.6ZM39.8 4.5c-6 0-10.3 3.7-10.3 8.9 0 5.1 4.3 8.9 10.3 8.9 5.9 0 10.2-3.8 10.2-9 0-5-4.3-8.8-10.2-8.8Zm0 3.5c3.5 0 6.1 2.1 6.1 5.4 0 3.2-2.6 5.4-6.1 5.4-3.6 0-6.2-2.2-6.2-5.4 0-3.3 2.6-5.4 6.2-5.4Zm15.7 12.6c.8.9 2.5 1.7 4.6 1.7 4.3 0 6.8-3 6.8-6.6C67 12 64.4 9 60.1 9c-2.1 0-3.8.8-4.6 1.7v-6h-3.9V22h3.9v-1.4Zm-.1-5c0-2 1.7-3.4 3.9-3.4 2 0 3.9 1.2 3.9 3.5 0 2.2-1.8 3.5-4 3.5-2.1 0-3.8-1.4-3.8-3.4v-.2ZM67.3 20a11 11 0 0 0 7.2 2.3c4 0 7-1.5 7-4.4 0-3-2.9-3.5-6.1-3.8-2.8-.4-3.6-.4-3.6-1.1 0-.7.9-1 2.5-1 2 0 3.7.5 4.8 1.6l2-2.3A9.7 9.7 0 0 0 74.5 9c-4 0-6.5 1.7-6.5 4.3 0 2.7 2.5 3.3 5.6 3.7 2.8.3 4 .3 4 1.2 0 .8-1 1.1-2.8 1.1-2.2 0-4.1-.7-5.7-2l-1.8 2.5ZM82.8 8h4V4.9h-4V8Zm3.9 1.4h-3.8V22h3.8V9.4Zm13.1 11.2V22h3.9V4.8h-3.9v6C99 9.8 97.4 9 95.2 9c-4.3 0-6.8 3-6.8 6.6 0 3.6 2.5 6.6 6.8 6.6 2.2 0 3.8-.8 4.6-1.7Zm.1-5v.2c0 2-1.7 3.4-3.9 3.4-2 0-3.9-1.3-3.9-3.5 0-2.3 1.8-3.5 4-3.5 2.1 0 3.8 1.4 3.8 3.4ZM106 8h4V4.9h-4V8Zm3.9 1.4H106V22h3.9V9.4Zm7 12.9a8 8 0 0 0 5.2-1.7c.6 1.2 2.2 2 5 1.4v-2.8c-1.4.3-1.7 0-1.7-.7v-4.6c0-3.2-2.3-4.8-6.4-4.8-3.5 0-6.2 1.5-7 3.8l3.4 1c.4-1 1.7-1.8 3.5-1.8 2 0 2.8.8 2.8 1.7v.1l-5 .5c-3 .3-5.2 1.5-5.2 4 0 2.4 2.2 3.9 5.4 3.9Zm4.8-5.1c0 1.4-2.2 2.3-4.1 2.3-1.5 0-2.4-.5-2.4-1.3s.7-1.1 2-1.3l4.5-.4v.7Zm6.7 4.8h3.8v-6c0-2.2 1.2-3.5 3.3-3.5 2 0 3 1.3 3 3.4V22h3.8v-7.2c0-3.5-2.2-5.7-5.5-5.7-2 0-3.6.8-4.6 1.8V9.4h-3.8V22Z" />
</svg>